# Noesis .obj export.
#
mtllib door.mtl
g
v  0.000000 173.321487 0.000000
v  0.000000 146.904602 0.000000
v  0.103363 173.321487 23.894196
v  0.000000 127.067177 0.000000
v  0.103363 0.000000 23.894196
v  0.000000 42.971909 0.000000
v  144.765167 173.321487 -0.561096
v  144.765167 173.321487 -0.561096
v  144.765167 146.904602 -0.561096
v  144.868530 173.321487 23.333099
v  144.765167 127.067177 -0.561096
v  144.868530 0.000000 23.333099
v  144.765167 23.984039 -0.561096
v  144.765167 23.984039 -0.561096
v  144.868530 0.000000 23.333099
v  144.765167 42.971909 -0.561096
v  144.765167 127.067177 -0.561096
v  0.000000 127.067177 0.000000
v  144.765167 146.904602 -0.561096
v  144.765167 146.904602 -0.561096
v  144.745178 147.136551 -5.715240
v  144.745178 127.403030 -5.715240
v  -0.019958 127.403030 -5.154144
v  144.765167 127.067177 -0.561096
v  144.765167 146.904602 -0.561096
v  144.745178 147.136551 -5.715240
v  -0.019958 147.136551 -5.154144
v  -0.019958 127.403030 -5.154144
v  0.000000 146.904602 0.000000
v  144.765167 23.984039 -0.561096
v  144.745178 24.177490 -5.715240
v  144.745178 42.666260 -5.715240
v  -0.019958 42.666260 -5.154144
v  144.765167 42.971909 -0.561096
v  0.000000 23.984039 0.000000
v  -0.019958 42.666260 -5.154144
v  -0.019958 24.177490 -5.154144
v  144.745178 24.177490 -5.715240
v  144.765167 23.984039 -0.561096
v  144.868530 0.000000 23.333099
v  144.765167 0.000000 -0.561096
v  144.765167 23.984039 -0.561096
v  0.000000 23.984039 0.000000
v  0.103363 0.000000 23.894196
v  0.000000 23.984039 0.000000
v  0.000000 0.000000 0.000000
v  144.765167 0.000000 -0.561096
v  0.103363 173.321487 23.894196
v  144.765167 173.321487 -0.561096
v  0.000000 173.321487 0.000000
v  144.765167 146.904602 -0.561096
v  0.000000 23.984039 0.000000
v  0.103363 0.000000 23.894196
v  0.000000 42.971909 0.000000
v  144.745178 127.403030 -5.715240
v  144.765167 146.904602 -0.561096
v  144.765167 127.067177 -0.561096
v  144.765167 146.904602 -0.561096
v  -0.019958 147.136551 -5.154144
v  0.000000 146.904602 0.000000
v  0.000000 146.904602 0.000000
v  -0.019958 127.403030 -5.154144
v  0.000000 127.067177 0.000000
v  -0.019958 127.403030 -5.154144
v  144.765167 127.067177 -0.561096
v  0.000000 127.067177 0.000000
v  144.765167 173.321487 -0.561096
v  0.103363 173.321487 23.894196
v  144.868530 173.321487 23.333099
v  0.000000 173.321487 0.000000
v  144.765167 146.904602 -0.561096
v  0.000000 146.904602 0.000000
v  0.103363 173.321487 23.894196
v  144.868530 0.000000 23.333099
v  144.868530 173.321487 23.333099
v  144.868530 0.000000 23.333099
v  0.103363 173.321487 23.894196
v  0.103363 0.000000 23.894196
v  0.000000 127.067177 0.000000
v  144.765167 42.971909 -0.561096
v  0.000000 42.971909 0.000000
v  144.765167 23.984039 -0.561096
v  144.745178 42.666260 -5.715240
v  144.765167 42.971909 -0.561096
v  144.765167 42.971909 -0.561096
v  -0.019958 42.666260 -5.154144
v  0.000000 42.971909 0.000000
v  -0.019958 42.666260 -5.154144
v  0.000000 23.984039 0.000000
v  0.000000 42.971909 0.000000
v  -0.019958 24.177490 -5.154144
v  144.765167 23.984039 -0.561096
v  0.000000 23.984039 0.000000

vt  0.804822 -0.057106 0.000000
vt  0.804822 -0.182480 0.000000
vt  0.838014 -0.057106 0.000000
vt  0.804822 -0.294237 0.000000
vt  0.838014 -0.998486 0.000000
vt  0.804822 -0.751311 0.000000
vt  0.419422 -0.057106 0.000000
vt  0.419422 -0.057106 0.000000
vt  0.419422 -0.182480 0.000000
vt  0.392823 -0.057106 0.000000
vt  0.419422 -0.294237 0.000000
vt  0.392823 -0.998486 0.000000
vt  0.419422 -0.859355 0.000000
vt  0.419422 -0.859355 0.000000
vt  0.392823 -0.998486 0.000000
vt  0.419422 -0.751311 0.000000
vt  0.419422 -0.294237 0.000000
vt  0.804822 -0.294237 0.000000
vt  0.968494 -0.005832 0.000000
vt  0.968494 -0.005832 0.000000
vt  0.968494 -0.045386 0.000000
vt  0.877553 -0.045386 0.000000
vt  0.877553 -0.958128 0.000000
vt  0.850145 -0.045386 0.000000
vt  0.995901 -0.045386 0.000000
vt  0.968494 -0.045386 0.000000
vt  0.968494 -0.958128 0.000000
vt  0.877553 -0.958128 0.000000
vt  0.968494 -0.994168 0.000000
vt  0.877553 -0.994168 0.000000
vt  0.877553 -0.954614 0.000000
vt  0.968494 -0.954614 0.000000
vt  0.968494 -0.041872 0.000000
vt  0.995901 -0.954614 0.000000
vt  0.877553 -0.005832 0.000000
vt  0.968494 -0.041872 0.000000
vt  0.877553 -0.041872 0.000000
vt  0.877553 -0.954614 0.000000
vt  0.850145 -0.954614 0.000000
vt  0.392823 -0.998486 0.000000
vt  0.419422 -0.998486 0.000000
vt  0.419422 -0.859355 0.000000
vt  0.804822 -0.859355 0.000000
vt  0.838014 -0.998486 0.000000
vt  0.804822 -0.859355 0.000000
vt  0.804822 -0.998486 0.000000
vt  0.419422 -0.998486 0.000000
vt  0.804609 -0.006676 0.000000
vt  0.419563 -0.057106 0.000000
vt  0.804646 -0.057101 0.000000
vt  0.419422 -0.182480 0.000000
vt  0.804822 -0.859355 0.000000
vt  0.838014 -0.998486 0.000000
vt  0.804822 -0.751311 0.000000
vt  0.877553 -0.045386 0.000000
vt  0.968494 -0.005832 0.000000
vt  0.877553 -0.005832 0.000000
vt  0.995901 -0.045386 0.000000
vt  0.968494 -0.958128 0.000000
vt  0.995901 -0.958128 0.000000
vt  0.968494 -0.994168 0.000000
vt  0.877553 -0.958128 0.000000
vt  0.877553 -0.994168 0.000000
vt  0.877553 -0.958128 0.000000
vt  0.850145 -0.045386 0.000000
vt  0.850145 -0.958128 0.000000
vt  0.419563 -0.057106 0.000000
vt  0.804609 -0.006676 0.000000
vt  0.419739 -0.006690 0.000000
vt  0.804646 -0.057101 0.000000
vt  0.419422 -0.182480 0.000000
vt  0.804822 -0.182480 0.000000
vt  0.003860 -0.057106 0.000000
vt  0.378778 -0.998486 0.000000
vt  0.378778 -0.057106 0.000000
vt  0.378778 -0.998486 0.000000
vt  0.003860 -0.057106 0.000000
vt  0.003860 -0.998486 0.000000
vt  0.804822 -0.294237 0.000000
vt  0.419422 -0.751311 0.000000
vt  0.804822 -0.751311 0.000000
vt  0.877553 -0.994168 0.000000
vt  0.968494 -0.954614 0.000000
vt  0.968494 -0.994168 0.000000
vt  0.995901 -0.954614 0.000000
vt  0.968494 -0.041872 0.000000
vt  0.995901 -0.041872 0.000000
vt  0.968494 -0.041872 0.000000
vt  0.877553 -0.005832 0.000000
vt  0.968494 -0.005832 0.000000
vt  0.877553 -0.041872 0.000000
vt  0.850145 -0.954614 0.000000
vt  0.850145 -0.041872 0.000000

vn  -0.579670 0.577437 -0.574935
vn  -0.909438 0.302469 -0.285369
vn  -0.903246 0.301474 0.305384
vn  -0.940457 -0.234377 -0.246187
vn  -0.969091 0.000000 0.246704
vn  -0.901005 0.299401 -0.313924
vn  0.575021 0.577264 -0.579756
vn  0.575021 0.577264 -0.579756
vn  0.907053 0.302421 -0.292909
vn  0.905805 0.301548 0.297633
vn  0.938369 -0.234340 -0.254063
vn  0.971176 0.000000 0.238362
vn  0.900173 -0.300252 -0.315495
vn  0.900173 -0.300252 -0.315495
vn  0.971176 0.000000 0.238362
vn  0.898389 0.299350 -0.321383
vn  0.938369 -0.234340 -0.254063
vn  -0.940457 -0.234377 -0.246187
vn  0.907053 0.302421 -0.292909
vn  0.907053 0.302421 -0.292909
vn  0.584027 0.585608 -0.562117
vn  0.562891 -0.564033 -0.604169
vn  -0.567557 -0.564032 -0.599788
vn  0.938369 -0.234340 -0.254063
vn  0.907053 0.302421 -0.292909
vn  0.584027 0.585608 -0.562117
vn  -0.588366 0.585608 -0.557573
vn  -0.567557 -0.564032 -0.599788
vn  -0.909438 0.302469 -0.285369
vn  0.900173 -0.300252 -0.315495
vn  0.567967 -0.569863 -0.593860
vn  0.563955 0.565291 -0.601998
vn  -0.568604 0.565290 -0.597609
vn  0.898389 0.299350 -0.321383
vn  -0.902742 -0.300302 -0.308019
vn  -0.568604 0.565290 -0.597609
vn  -0.572553 -0.569863 -0.589440
vn  0.567967 -0.569863 -0.593860
vn  0.900173 -0.300252 -0.315495
vn  0.971176 0.000000 0.238362
vn  0.704201 0.000000 -0.710001
vn  0.900173 -0.300252 -0.315495
vn  -0.902742 -0.300302 -0.308019
vn  -0.969091 0.000000 0.246704
vn  -0.902742 -0.300302 -0.308019
vn  -0.710001 0.000000 -0.704201
vn  0.704201 0.000000 -0.710001
vn  -0.903246 0.301474 0.305384
vn  0.575021 0.577264 -0.579756
vn  -0.579670 0.577437 -0.574935
vn  0.907053 0.302421 -0.292909
vn  -0.902742 -0.300302 -0.308019
vn  -0.969091 0.000000 0.246704
vn  -0.901005 0.299401 -0.313924
vn  0.562891 -0.564033 -0.604169
vn  0.907053 0.302421 -0.292909
vn  0.938369 -0.234340 -0.254063
vn  0.907053 0.302421 -0.292909
vn  -0.588366 0.585608 -0.557573
vn  -0.909438 0.302469 -0.285369
vn  -0.909438 0.302469 -0.285369
vn  -0.567557 -0.564032 -0.599788
vn  -0.940457 -0.234377 -0.246187
vn  -0.567557 -0.564032 -0.599788
vn  0.938369 -0.234340 -0.254063
vn  -0.940457 -0.234377 -0.246187
vn  0.575021 0.577264 -0.579756
vn  -0.903246 0.301474 0.305384
vn  0.905805 0.301548 0.297633
vn  -0.579670 0.577437 -0.574935
vn  0.907053 0.302421 -0.292909
vn  -0.909438 0.302469 -0.285369
vn  -0.903246 0.301474 0.305384
vn  0.971176 0.000000 0.238362
vn  0.905805 0.301548 0.297633
vn  0.971176 0.000000 0.238362
vn  -0.903246 0.301474 0.305384
vn  -0.969091 0.000000 0.246704
vn  -0.940457 -0.234377 -0.246187
vn  0.898389 0.299350 -0.321383
vn  -0.901005 0.299401 -0.313924
vn  0.900173 -0.300252 -0.315495
vn  0.563955 0.565291 -0.601998
vn  0.898389 0.299350 -0.321383
vn  0.898389 0.299350 -0.321383
vn  -0.568604 0.565290 -0.597609
vn  -0.901005 0.299401 -0.313924
vn  -0.568604 0.565290 -0.597609
vn  -0.902742 -0.300302 -0.308019
vn  -0.901005 0.299401 -0.313924
vn  -0.572553 -0.569863 -0.589440
vn  0.900173 -0.300252 -0.315495
vn  -0.902742 -0.300302 -0.308019

g rdmobj00
usemtl material000
f  1/1/1 2/2/2 3/3/3
f  4/4/4 3/3/3 2/2/2
f  3/3/3 4/4/4 5/5/5
f  6/6/6 5/5/5 4/4/4
f  7/7/7 8/8/8 9/9/9
f  10/10/10 9/9/9 8/8/8
f  9/9/9 10/10/10 11/11/11
f  12/12/12 11/11/11 10/10/10
f  13/13/13 14/14/14 15/15/15
f  16/16/16 15/15/15 14/14/14
f  15/15/15 16/16/16 17/17/17
f  18/18/18 17/17/17 16/16/16
f  19/19/19 20/20/20 21/21/21
f  22/22/22 21/21/21 20/20/20
f  21/21/21 22/22/22 23/23/23
f  24/24/24 23/23/23 22/22/22
f  25/25/25 26/26/26 27/27/27
f  28/28/28 27/27/27 26/26/26
f  27/27/27 28/28/28 29/29/29
f  30/30/30 31/31/31 32/32/32
f  33/33/33 32/32/32 31/31/31
f  32/32/32 33/33/33 34/34/34
f  35/35/35 36/36/36 37/37/37
f  38/38/38 37/37/37 36/36/36
f  37/37/37 38/38/38 39/39/39
f  40/40/40 41/41/41 42/42/42
f  43/43/43 42/42/42 41/41/41
f  44/44/44 45/45/45 46/46/46
f  47/47/47 46/46/46 45/45/45
f  48/48/48 49/49/49 50/50/50
f  51/51/51 50/50/50 49/49/49
f  52/52/52 53/53/53 54/54/54
f  55/55/55 56/56/56 57/57/57
f  58/58/58 59/59/59 60/60/60
f  61/61/61 62/62/62 63/63/63
f  64/64/64 65/65/65 66/66/66
f  67/67/67 68/68/68 69/69/69
f  70/70/70 71/71/71 72/72/72
f  73/73/73 74/74/74 75/75/75
f  76/76/76 77/77/77 78/78/78
f  79/79/79 80/80/80 81/81/81
f  82/82/82 83/83/83 84/84/84
f  85/85/85 86/86/86 87/87/87
f  88/88/88 89/89/89 90/90/90
f  91/91/91 92/92/92 93/93/93

g
v  122.402969 52.424362 -0.390030
v  122.402969 52.424362 -0.390030
v  122.393158 52.424362 -2.921833
v  122.393158 61.414230 -2.921829
v  135.223267 61.414230 -2.971565
v  135.201859 66.845840 -8.492577
v  135.211670 66.845871 -5.960800
v  135.201859 82.952042 -8.492577
v  135.233078 52.424362 -0.439766
v  122.393158 52.424362 -2.921833
v  135.223267 52.424362 -2.971561
v  135.223267 61.414230 -2.971565
v  135.233078 61.414230 -0.439766
v  135.211670 66.845871 -5.960800
v  122.393158 88.383652 -2.921829
v  135.201859 82.952042 -8.492577
v  122.371750 82.952042 -8.442848
v  122.371750 66.845840 -8.442848
v  122.381561 66.845871 -5.911072
v  122.393158 61.414230 -2.921829
v  135.223267 97.373520 -2.971565
v  135.223267 97.373520 -2.971565
v  122.393158 88.383652 -2.921829
v  135.223267 88.383652 -2.971565
v  135.201859 82.952042 -8.492577
v  135.211670 82.952072 -5.960800
v  135.211670 66.845871 -5.960800
v  135.233078 97.373520 -0.439766
v  135.223267 97.373520 -2.971565
v  122.393158 97.373520 -2.921829
v  122.393158 88.383652 -2.921829
v  122.402969 97.373520 -0.390030
v  122.393158 61.414230 -2.921829
v  122.371750 66.845840 -8.442848
v  135.201859 66.845840 -8.492577
v  135.201859 82.952042 -8.492577
v  122.393158 88.383652 -2.921829
v  122.371750 82.952042 -8.442848
v  122.381561 82.952072 -5.911072
v  122.381561 66.845871 -5.911072
v  122.381561 66.845871 -5.911072
v  122.393158 61.414230 -2.921829
v  122.402969 61.414230 -0.390030
v  122.402969 52.424362 -0.390030
v  135.223267 97.373520 -2.971565
v  135.233078 88.383652 -0.439766
v  135.223267 88.383652 -2.971565
v  135.211670 82.952072 -5.960800
v  122.402969 88.383652 -0.390030
v  122.381561 82.952072 -5.911072
v  135.211670 82.952072 -5.960800
v  135.211670 66.845871 -5.960800
v  122.381561 82.952072 -5.911072
v  122.381561 66.845871 -5.911072
v  135.211670 66.845871 -5.960800
v  122.402969 61.414230 -0.390030
v  122.393158 52.424362 -2.921833
v  135.233078 52.424362 -0.439766
v  122.402969 52.424362 -0.390030
v  135.233078 97.373520 -0.439766
v  122.393158 97.373520 -2.921829
v  122.402969 97.373520 -0.390030
v  122.402969 97.373520 -0.390030
v  122.393158 88.383652 -2.921829
v  122.402969 88.383652 -0.390030
v  122.393158 88.383652 -2.921829
v  122.381561 82.952072 -5.911072
v  122.402969 88.383652 -0.390030
v  135.233078 88.383652 -0.439766
v  135.223267 97.373520 -2.971565
v  135.233078 97.373520 -0.439766
v  135.223267 52.424362 -2.971561
v  135.233078 61.414230 -0.439766
v  135.233078 52.424362 -0.439766
v  122.402969 88.383652 -0.390030
v  135.211670 82.952072 -5.960800
v  135.233078 88.383652 -0.439766
v  135.211670 66.845871 -5.960800
v  122.402969 61.414230 -0.390030
v  135.233078 61.414230 -0.439766

vt  0.000000 -0.948000 0.000000
vt  0.000000 -0.948000 0.000000
vt  0.187500 -0.948000 0.000000
vt  0.187500 -0.768800 0.000000
vt  0.812500 -0.768800 0.000000
vt  0.812500 -0.639643 0.000000
vt  1.000000 -0.639643 0.000000
vt  0.812500 -0.360357 0.000000
vt  0.812500 -1.000000 0.000000
vt  0.187500 -0.948000 0.000000
vt  0.812500 -0.948000 0.000000
vt  0.812500 -0.768800 0.000000
vt  1.000000 -0.768800 0.000000
vt  1.000000 -0.639643 0.000000
vt  0.187500 -0.231200 0.000000
vt  0.812500 -0.360357 0.000000
vt  0.187500 -0.360357 0.000000
vt  0.187500 -0.639643 0.000000
vt  0.000000 -0.639643 0.000000
vt  0.187500 -0.768800 0.000000
vt  0.812500 -0.052000 0.000000
vt  0.812500 -0.052000 0.000000
vt  0.187500 -0.231200 0.000000
vt  0.812500 -0.231200 0.000000
vt  0.812500 -0.360357 0.000000
vt  1.000000 -0.360357 0.000000
vt  1.000000 -0.639643 0.000000
vt  0.812500 -0.000000 0.000000
vt  0.812500 -0.052000 0.000000
vt  0.187500 -0.052000 0.000000
vt  0.187500 -0.231200 0.000000
vt  0.000000 -0.052000 0.000000
vt  0.187500 -0.768800 0.000000
vt  0.187500 -0.639643 0.000000
vt  0.812500 -0.639643 0.000000
vt  0.812500 -0.360357 0.000000
vt  0.187500 -0.231200 0.000000
vt  0.187500 -0.360357 0.000000
vt  0.000000 -0.360357 0.000000
vt  0.000000 -0.639643 0.000000
vt  0.000000 -0.639643 0.000000
vt  0.187500 -0.768800 0.000000
vt  0.000000 -0.768800 0.000000
vt  0.000000 -0.948000 0.000000
vt  0.812500 -0.052000 0.000000
vt  1.000000 -0.231200 0.000000
vt  0.812500 -0.231200 0.000000
vt  1.000000 -0.360357 0.000000
vt  0.227867 -0.231870 0.000000
vt  0.227867 -0.361013 0.000000
vt  0.772133 -0.361013 0.000000
vt  0.772133 -0.638986 0.000000
vt  0.227867 -0.361013 0.000000
vt  0.227867 -0.638986 0.000000
vt  0.772133 -0.638986 0.000000
vt  0.227867 -0.768129 0.000000
vt  0.187500 -0.948000 0.000000
vt  0.812500 -1.000000 0.000000
vt  0.187500 -1.000000 0.000000
vt  0.812500 -0.000000 0.000000
vt  0.187500 -0.052000 0.000000
vt  0.187500 -0.000000 0.000000
vt  0.000000 -0.052000 0.000000
vt  0.187500 -0.231200 0.000000
vt  0.000000 -0.231200 0.000000
vt  0.187500 -0.231200 0.000000
vt  0.000000 -0.360357 0.000000
vt  0.000000 -0.231200 0.000000
vt  1.000000 -0.231200 0.000000
vt  0.812500 -0.052000 0.000000
vt  1.000000 -0.052000 0.000000
vt  0.812500 -0.948000 0.000000
vt  1.000000 -0.768800 0.000000
vt  1.000000 -0.948000 0.000000
vt  0.227867 -0.231870 0.000000
vt  0.772133 -0.361013 0.000000
vt  0.772133 -0.231870 0.000000
vt  0.772133 -0.638986 0.000000
vt  0.227867 -0.768129 0.000000
vt  0.772133 -0.768129 0.000000

vn  -0.707101 -0.707107 0.002740
vn  -0.707101 -0.707107 0.002740
vn  -0.579584 -0.577350 -0.575108
vn  -0.737502 -0.262006 -0.622449
vn  0.732656 -0.262005 -0.628147
vn  0.732656 -0.262005 -0.628147
vn  0.737502 0.262006 0.622449
vn  0.732656 0.262005 -0.628147
vn  0.707101 -0.707107 -0.002740
vn  -0.579584 -0.577350 -0.575108
vn  0.575108 -0.577350 -0.579583
vn  0.732656 -0.262005 -0.628147
vn  0.895636 0.318800 0.310166
vn  0.737502 0.262006 0.622449
vn  -0.737503 0.262006 -0.622449
vn  0.732656 0.262005 -0.628147
vn  -0.737502 0.262006 -0.622449
vn  -0.737502 -0.262006 -0.622449
vn  -0.732656 0.262004 0.628147
vn  -0.737502 -0.262006 -0.622449
vn  0.575108 0.577350 -0.579584
vn  0.575108 0.577350 -0.579584
vn  -0.737503 0.262006 -0.622449
vn  0.732656 0.262005 -0.628147
vn  0.732656 0.262005 -0.628147
vn  0.737503 -0.262007 0.622448
vn  0.737502 0.262006 0.622449
vn  0.707101 0.707107 -0.002740
vn  0.575108 0.577350 -0.579584
vn  -0.579584 0.577350 -0.575108
vn  -0.737503 0.262006 -0.622449
vn  -0.707101 0.707107 0.002740
vn  -0.737502 -0.262006 -0.622449
vn  -0.737502 -0.262006 -0.622449
vn  0.732656 -0.262005 -0.628147
vn  0.732656 0.262005 -0.628147
vn  -0.737503 0.262006 -0.622449
vn  -0.737502 0.262006 -0.622449
vn  -0.732656 -0.262006 0.628146
vn  -0.732656 0.262004 0.628147
vn  -0.732656 0.262004 0.628147
vn  -0.737502 -0.262006 -0.622449
vn  -0.893205 0.318799 0.317099
vn  -0.707101 -0.707107 0.002740
vn  0.575108 0.577350 -0.579584
vn  0.895636 -0.318802 0.310165
vn  0.732656 0.262005 -0.628147
vn  0.737503 -0.262007 0.622448
vn  -0.893205 -0.318800 0.317097
vn  -0.732656 -0.262006 0.628146
vn  0.737503 -0.262007 0.622448
vn  0.737502 0.262006 0.622449
vn  -0.732656 -0.262006 0.628146
vn  -0.732656 0.262004 0.628147
vn  0.737502 0.262006 0.622449
vn  -0.893205 0.318799 0.317099
vn  -0.579584 -0.577350 -0.575108
vn  0.707101 -0.707107 -0.002740
vn  -0.707101 -0.707107 0.002740
vn  0.707101 0.707107 -0.002740
vn  -0.579584 0.577350 -0.575108
vn  -0.707101 0.707107 0.002740
vn  -0.707101 0.707107 0.002740
vn  -0.737503 0.262006 -0.622449
vn  -0.893205 -0.318800 0.317097
vn  -0.737503 0.262006 -0.622449
vn  -0.732656 -0.262006 0.628146
vn  -0.893205 -0.318800 0.317097
vn  0.895636 -0.318802 0.310165
vn  0.575108 0.577350 -0.579584
vn  0.707101 0.707107 -0.002740
vn  0.575108 -0.577350 -0.579583
vn  0.895636 0.318800 0.310166
vn  0.707101 -0.707107 -0.002740
vn  -0.893205 -0.318800 0.317097
vn  0.737503 -0.262007 0.622448
vn  0.895636 -0.318802 0.310165
vn  0.737502 0.262006 0.622449
vn  -0.893205 0.318799 0.317099
vn  0.895636 0.318800 0.310166

g rdmobj01
usemtl material001
f  94/94/94 95/95/95 96/96/96
f  97/97/97 96/96/96 95/95/95
f  96/96/96 97/97/97 98/98/98
f  99/99/99 98/98/98 97/97/97
f  98/98/98 99/99/99 100/100/100
f  101/101/101 100/100/100 99/99/99
f  102/102/102 103/103/103 104/104/104
f  105/105/105 104/104/104 103/103/103
f  104/104/104 105/105/105 106/106/106
f  107/107/107 106/106/106 105/105/105
f  108/108/108 109/109/109 110/110/110
f  111/111/111 110/110/110 109/109/109
f  110/110/110 111/111/111 112/112/112
f  113/113/113 112/112/112 111/111/111
f  114/114/114 115/115/115 116/116/116
f  117/117/117 116/116/116 115/115/115
f  116/116/116 117/117/117 118/118/118
f  119/119/119 118/118/118 117/117/117
f  118/118/118 119/119/119 120/120/120
f  121/121/121 122/122/122 123/123/123
f  124/124/124 123/123/123 122/122/122
f  123/123/123 124/124/124 125/125/125
f  126/126/126 127/127/127 128/128/128
f  129/129/129 128/128/128 127/127/127
f  130/130/130 131/131/131 132/132/132
f  133/133/133 132/132/132 131/131/131
f  134/134/134 135/135/135 136/136/136
f  137/137/137 136/136/136 135/135/135
f  138/138/138 139/139/139 140/140/140
f  141/141/141 140/140/140 139/139/139
f  142/142/142 143/143/143 144/144/144
f  145/145/145 144/144/144 143/143/143
f  146/146/146 147/147/147 148/148/148
f  149/149/149 148/148/148 147/147/147
f  150/150/150 151/151/151 152/152/152
f  153/153/153 154/154/154 155/155/155
f  156/156/156 157/157/157 158/158/158
f  159/159/159 160/160/160 161/161/161
f  162/162/162 163/163/163 164/164/164
f  165/165/165 166/166/166 167/167/167
f  168/168/168 169/169/169 170/170/170
f  171/171/171 172/172/172 173/173/173

g
