# Noesis .obj export.
#
mtllib door_cupboard.mtl
g
v  0.000000 136.677567 0.000000
v  -102.372437 136.677567 0.000122
v  -93.742920 127.805298 0.000122
v  -93.742920 8.872307 0.000122
v  -89.329346 13.816528 -0.982880
v  -13.043335 13.816528 -0.982880
v  -13.043335 122.861099 -0.982880
v  -8.629517 127.805298 0.000000
v  -93.742920 127.805298 0.000122
v  0.000000 136.677567 0.000000
v  0.000000 0.000008 -3.107056
v  -93.742798 8.872322 -3.107025
v  -8.629517 8.872337 -3.107056
v  -13.043335 13.816536 -2.123962
v  -13.043335 122.861099 -2.123962
v  -89.329224 122.861099 -2.123932
v  -93.742798 127.805298 -3.107025
v  -89.329224 13.816536 -2.123932
v  -89.329224 122.861099 -2.123932
v  -13.043335 13.816536 -2.123962
v  -89.329224 13.816536 -2.123932
v  -93.742798 8.872322 -3.107025
v  -93.742798 127.805298 -3.107025
v  -102.372437 136.677567 -3.107025
v  0.000000 136.677567 -3.107056
v  -89.329346 13.816528 -0.982880
v  -13.043335 122.861099 -0.982880
v  -89.329346 122.861099 -0.982880
v  -93.742920 127.805298 0.000122
v  -89.329346 13.816528 -0.982880
v  -102.372437 0.000008 0.000122
v  -102.372437 136.677567 -3.107025
v  -102.372437 0.000008 -3.107025
v  -93.742798 8.872322 -3.107025
v  0.000000 0.000008 -3.107056
v  0.000000 136.677567 0.000000
v  -8.629517 127.805298 0.000000
v  -8.629517 8.872314 0.000000
v  -13.043335 13.816528 -0.982880
v  -93.742920 8.872307 0.000122
v  -93.742798 127.805298 -3.107025
v  0.000000 136.677567 -3.107056
v  -8.629517 127.805298 -3.107056
v  -8.629517 8.872337 -3.107056
v  -13.043335 122.861099 -2.123962
v  0.000000 0.000008 -3.107056
v  0.000000 136.677567 0.000000
v  0.000000 0.000000 0.000000
v  -8.629517 8.872314 0.000000
v  0.000000 136.677567 0.000000
v  0.000000 0.000008 -3.107056
v  0.000000 136.677567 -3.107056
v  -8.629517 8.872337 -3.107056
v  -102.372437 136.677567 0.000122
v  -102.372437 0.000008 0.000122
v  -93.742920 8.872307 0.000122
v  0.000000 0.000000 0.000000
v  -102.372437 136.677567 -3.107025
v  0.000000 136.677567 0.000000
v  0.000000 136.677567 -3.107056
v  0.000000 136.677567 0.000000
v  -102.372437 136.677567 -3.107025
v  -102.372437 136.677567 0.000122
v  -102.372437 136.677567 -3.107025
v  -102.372437 0.000008 0.000122
v  -102.372437 136.677567 0.000122
v  -102.372437 0.000008 -3.107025
v  0.000000 0.000000 0.000000
v  -102.372437 0.000008 0.000122
v  0.000000 0.000000 0.000000
v  -102.372437 0.000008 -3.107025
v  0.000000 0.000008 -3.107056
v  -93.742920 8.872307 0.000122
v  0.000000 0.000000 0.000000
v  -8.629517 8.872314 0.000000
v  -13.043335 122.861099 -2.123962
v  -93.742798 127.805298 -3.107025
v  -8.629517 127.805298 -3.107056

vt  0.549769 -0.056257 0.000000
vt  1.000000 -0.056257 0.000000
vt  0.957495 -0.118243 0.000000
vt  0.957495 -0.881757 0.000000
vt  0.933199 -0.850136 0.000000
vt  0.607568 -0.850136 0.000000
vt  0.607568 -0.149864 0.000000
vt  0.583272 -0.118243 0.000000
vt  0.957495 -0.118243 0.000000
vt  0.549769 -0.056257 0.000000
vt  0.514077 -0.939217 0.000000
vt  0.091846 -0.881757 0.000000
vt  0.465159 -0.881757 0.000000
vt  0.440708 -0.850136 0.000000
vt  0.440708 -0.149864 0.000000
vt  0.116296 -0.149864 0.000000
vt  0.091846 -0.118243 0.000000
vt  0.116296 -0.850136 0.000000
vt  0.116296 -0.149864 0.000000
vt  0.440708 -0.850136 0.000000
vt  0.116296 -0.850136 0.000000
vt  0.091846 -0.881757 0.000000
vt  0.091846 -0.118243 0.000000
vt  0.039178 -0.056257 0.000000
vt  0.514077 -0.056257 0.000000
vt  0.933199 -0.850136 0.000000
vt  0.607568 -0.149864 0.000000
vt  0.933199 -0.149864 0.000000
vt  0.957495 -0.118243 0.000000
vt  0.933199 -0.850136 0.000000
vt  0.000000 -0.939217 0.000000
vt  0.039178 -0.056257 0.000000
vt  0.039178 -0.939217 0.000000
vt  0.091846 -0.881757 0.000000
vt  0.514077 -0.939217 0.000000
vt  0.549323 -0.056257 0.000000
vt  0.583272 -0.118243 0.000000
vt  0.583272 -0.881757 0.000000
vt  0.607568 -0.850136 0.000000
vt  0.957495 -0.881757 0.000000
vt  0.091846 -0.118243 0.000000
vt  0.514077 -0.056257 0.000000
vt  0.465159 -0.118243 0.000000
vt  0.465159 -0.881757 0.000000
vt  0.440708 -0.149864 0.000000
vt  0.514077 -0.939217 0.000000
vt  0.549323 -0.056257 0.000000
vt  0.549323 -0.939217 0.000000
vt  0.583272 -0.881757 0.000000
vt  0.549323 -0.056257 0.000000
vt  0.514077 -0.939217 0.000000
vt  0.514077 -0.056257 0.000000
vt  0.465159 -0.881757 0.000000
vt  1.000000 -0.056257 0.000000
vt  1.000000 -0.939217 0.000000
vt  0.957495 -0.881757 0.000000
vt  0.549769 -0.939217 0.000000
vt  0.039418 -0.056257 0.000000
vt  0.514077 -0.000000 0.000000
vt  0.513837 -0.056257 0.000000
vt  0.514077 -0.000000 0.000000
vt  0.039418 -0.056257 0.000000
vt  0.039178 -0.000000 0.000000
vt  0.039178 -0.056257 0.000000
vt  0.000000 -0.939217 0.000000
vt  0.000000 -0.056257 0.000000
vt  0.039418 -0.939217 0.000000
vt  0.514077 -1.000000 0.000000
vt  0.039178 -1.000000 0.000000
vt  0.514077 -1.000000 0.000000
vt  0.039418 -0.939217 0.000000
vt  0.513837 -0.939217 0.000000
vt  0.957495 -0.881757 0.000000
vt  0.549769 -0.939217 0.000000
vt  0.583272 -0.881757 0.000000
vt  0.440708 -0.149864 0.000000
vt  0.091846 -0.118243 0.000000
vt  0.465159 -0.118243 0.000000

vn  0.408249 0.408248 0.816496
vn  -0.408248 0.408248 0.816497
vn  0.054793 -0.049145 0.997288
vn  0.054793 0.049145 0.997288
vn  0.073166 0.065625 0.995158
vn  -0.073153 0.065625 0.995159
vn  -0.073153 -0.065625 0.995159
vn  -0.054782 -0.049145 0.997288
vn  0.054793 -0.049145 0.997288
vn  0.408249 0.408248 0.816496
vn  0.408248 -0.408248 -0.816497
vn  0.054797 0.049153 -0.997287
vn  -0.054794 0.049153 -0.997287
vn  -0.073169 0.065635 -0.995157
vn  -0.073169 -0.065635 -0.995157
vn  0.073172 -0.065635 -0.995157
vn  0.054797 -0.049153 -0.997287
vn  0.073172 0.065635 -0.995157
vn  0.073172 -0.065635 -0.995157
vn  -0.073169 0.065635 -0.995157
vn  0.073172 0.065635 -0.995157
vn  0.054797 0.049153 -0.997287
vn  0.054797 -0.049153 -0.997287
vn  -0.408248 0.408248 -0.816497
vn  0.408248 0.408248 -0.816497
vn  0.073166 0.065625 0.995158
vn  -0.073153 -0.065625 0.995159
vn  0.073166 -0.065625 0.995158
vn  0.054793 -0.049145 0.997288
vn  0.073166 0.065625 0.995158
vn  -0.408248 -0.408249 0.816497
vn  -0.408248 0.408248 -0.816497
vn  -0.408248 -0.408248 -0.816497
vn  0.054797 0.049153 -0.997287
vn  0.408248 -0.408248 -0.816497
vn  0.408249 0.408248 0.816496
vn  -0.054782 -0.049145 0.997288
vn  -0.054782 0.049145 0.997288
vn  -0.073153 0.065625 0.995159
vn  0.054793 0.049145 0.997288
vn  0.054797 -0.049153 -0.997287
vn  0.408248 0.408248 -0.816497
vn  -0.054794 -0.049153 -0.997287
vn  -0.054794 0.049153 -0.997287
vn  -0.073169 -0.065635 -0.995157
vn  0.408248 -0.408248 -0.816497
vn  0.408249 0.408248 0.816496
vn  0.408249 -0.408248 0.816496
vn  -0.054782 0.049145 0.997288
vn  0.408249 0.408248 0.816496
vn  0.408248 -0.408248 -0.816497
vn  0.408248 0.408248 -0.816497
vn  -0.054794 0.049153 -0.997287
vn  -0.408248 0.408248 0.816497
vn  -0.408248 -0.408249 0.816497
vn  0.054793 0.049145 0.997288
vn  0.408249 -0.408248 0.816496
vn  -0.408248 0.408248 -0.816497
vn  0.408249 0.408248 0.816496
vn  0.408248 0.408248 -0.816497
vn  0.408249 0.408248 0.816496
vn  -0.408248 0.408248 -0.816497
vn  -0.408248 0.408248 0.816497
vn  -0.408248 0.408248 -0.816497
vn  -0.408248 -0.408249 0.816497
vn  -0.408248 0.408248 0.816497
vn  -0.408248 -0.408248 -0.816497
vn  0.408249 -0.408248 0.816496
vn  -0.408248 -0.408249 0.816497
vn  0.408249 -0.408248 0.816496
vn  -0.408248 -0.408248 -0.816497
vn  0.408248 -0.408248 -0.816497
vn  0.054793 0.049145 0.997288
vn  0.408249 -0.408248 0.816496
vn  -0.054782 0.049145 0.997288
vn  -0.073169 -0.065635 -0.995157
vn  0.054797 -0.049153 -0.997287
vn  -0.054794 -0.049153 -0.997287

g rdmobj00
usemtl material000
f  1/1/1 2/2/2 3/3/3
f  4/4/4 3/3/3 2/2/2
f  3/3/3 4/4/4 5/5/5
f  6/6/6 5/5/5 4/4/4
f  5/5/5 6/6/6 7/7/7
f  8/8/8 7/7/7 6/6/6
f  7/7/7 8/8/8 9/9/9
f  10/10/10 9/9/9 8/8/8
f  11/11/11 12/12/12 13/13/13
f  14/14/14 13/13/13 12/12/12
f  13/13/13 14/14/14 15/15/15
f  16/16/16 15/15/15 14/14/14
f  15/15/15 16/16/16 17/17/17
f  18/18/18 17/17/17 16/16/16
f  19/19/19 20/20/20 21/21/21
f  22/22/22 21/21/21 20/20/20
f  21/21/21 22/22/22 23/23/23
f  24/24/24 23/23/23 22/22/22
f  23/23/23 24/24/24 25/25/25
f  26/26/26 27/27/27 28/28/28
f  29/29/29 28/28/28 27/27/27
f  28/28/28 29/29/29 30/30/30
f  31/31/31 32/32/32 33/33/33
f  34/34/34 33/33/33 32/32/32
f  33/33/33 34/34/34 35/35/35
f  36/36/36 37/37/37 38/38/38
f  39/39/39 38/38/38 37/37/37
f  38/38/38 39/39/39 40/40/40
f  41/41/41 42/42/42 43/43/43
f  44/44/44 43/43/43 42/42/42
f  43/43/43 44/44/44 45/45/45
f  46/46/46 47/47/47 48/48/48
f  49/49/49 48/48/48 47/47/47
f  50/50/50 51/51/51 52/52/52
f  53/53/53 52/52/52 51/51/51
f  54/54/54 55/55/55 56/56/56
f  57/57/57 56/56/56 55/55/55
f  58/58/58 59/59/59 60/60/60
f  61/61/61 62/62/62 63/63/63
f  64/64/64 65/65/65 66/66/66
f  67/67/67 68/68/68 69/69/69
f  70/70/70 71/71/71 72/72/72
f  73/73/73 74/74/74 75/75/75
f  76/76/76 77/77/77 78/78/78

g
